<svg width="36" height="36" viewBox="0 0 36 36" fill="none" xmlns="http://www.w3.org/2000/svg">
<g opacity="0.3">
<path d="M18 5.5C24.9035 5.5 30.4998 11.0966 30.5 18C30.5 24.9036 24.9036 30.5 18 30.5C11.0966 30.4998 5.5 24.9035 5.5 18C5.50018 11.0967 11.0967 5.50018 18 5.5Z" stroke="#079455" stroke-width="1.66667"/>
</g>
<g opacity="0.1">
<path d="M18 1.33301C27.2047 1.33301 34.667 8.79525 34.667 18C34.667 27.2047 27.2047 34.667 18 34.667C8.79525 34.667 1.33301 27.2047 1.33301 18C1.33301 8.79525 8.79525 1.33301 18 1.33301Z" stroke="#079455" stroke-width="1.66667"/>
</g>
<g clip-path="url(#clip0_10590_20444)">
<path d="M14.2503 18.0003L16.7503 20.5003L21.7503 15.5003M26.3337 18.0003C26.3337 22.6027 22.6027 26.3337 18.0003 26.3337C13.398 26.3337 9.66699 22.6027 9.66699 18.0003C9.66699 13.398 13.398 9.66699 18.0003 9.66699C22.6027 9.66699 26.3337 13.398 26.3337 18.0003Z" stroke="#079455" stroke-width="1.66667" stroke-linecap="round" stroke-linejoin="round"/>
</g>
<defs>
<clipPath id="clip0_10590_20444">
<rect width="20" height="20" fill="white" transform="translate(8 8)"/>
</clipPath>
</defs>
</svg>
